# xmcd
#
# Track frame offsets:
#  150
#  16442
#  33944
#  49992
#  66979
#  81991
#  101204
#  121811
#  131546
#  145733
#  166223
#  180875
#  226198
#  249623
#  272298
#  315731
#  329144
#
# Disc length: 4611 seconds
#
# Revision: 0
# Processed by: cddbd v1.4PL0 Copyright (c) Steve Scherf et al.
# Submitted via: AltoMP3_Maker 3.0
#
DISCID=e9120111
DTITLE=Калинов Мост - Руда
DYEAR=1900
DGENRE=
TTITLE0=Праздники прошли
TTITLE1=Милая моя
TTITLE2=Брату
TTITLE3=Ловушка
TTITLE4=Страдания
TTITLE5=Самим собой
TTITLE6=Отношения
TTITLE7=Кто я?
TTITLE8=Красные Собаки
TTITLE9=Гой
TTITLE10=Дикарь
TTITLE11=Казак
TTITLE12=Родная
TTITLE13=Иерусалим
TTITLE14=Ключи
TTITLE15=Сберегла
TTITLE16=Девочка летом
EXTD=
EXTT0=
EXTT1=
EXTT2=
EXTT3=
EXTT4=
EXTT5=
EXTT6=
EXTT7=
EXTT8=
EXTT9=
EXTT10=
EXTT11=
EXTT12=
EXTT13=
EXTT14=
EXTT15=
EXTT16=
PLAYORDER=
